<mxfile host="app.diagrams.net" modified="2023-10-17T07:13:20.622Z" agent="Mozilla/5.0 (Windows NT 10.0; Win64; x64) AppleWebKit/537.36 (KHTML, like Gecko) Chrome/116.0.0.0 Safari/537.36" etag="MpAKg-rnsTin5wInfSGJ" version="22.0.0" type="device">
  <diagram name="Страница — 1" id="PvEBlf0Cd5fmpcgP2593">
    <mxGraphModel dx="1434" dy="783" grid="1" gridSize="10" guides="1" tooltips="1" connect="1" arrows="1" fold="1" page="1" pageScale="1" pageWidth="827" pageHeight="1169" math="0" shadow="0">
      <root>
        <mxCell id="0" />
        <mxCell id="1" parent="0" />
        <mxCell id="LzfFRMy2599pCRIqsPrJ-10" style="edgeStyle=orthogonalEdgeStyle;rounded=0;orthogonalLoop=1;jettySize=auto;html=1;exitX=0.5;exitY=1;exitDx=0;exitDy=0;entryX=0.5;entryY=0;entryDx=0;entryDy=0;" edge="1" parent="1" source="LzfFRMy2599pCRIqsPrJ-1" target="LzfFRMy2599pCRIqsPrJ-3">
          <mxGeometry relative="1" as="geometry" />
        </mxCell>
        <mxCell id="LzfFRMy2599pCRIqsPrJ-1" value="Начало" style="ellipse;whiteSpace=wrap;html=1;" vertex="1" parent="1">
          <mxGeometry x="320" y="40" width="120" height="40" as="geometry" />
        </mxCell>
        <mxCell id="LzfFRMy2599pCRIqsPrJ-2" value="Конец" style="ellipse;whiteSpace=wrap;html=1;" vertex="1" parent="1">
          <mxGeometry x="320" y="960" width="120" height="40" as="geometry" />
        </mxCell>
        <mxCell id="LzfFRMy2599pCRIqsPrJ-11" style="edgeStyle=orthogonalEdgeStyle;rounded=0;orthogonalLoop=1;jettySize=auto;html=1;exitX=0.5;exitY=1;exitDx=0;exitDy=0;entryX=0.5;entryY=0;entryDx=0;entryDy=0;" edge="1" parent="1" source="LzfFRMy2599pCRIqsPrJ-3" target="LzfFRMy2599pCRIqsPrJ-4">
          <mxGeometry relative="1" as="geometry" />
        </mxCell>
        <mxCell id="LzfFRMy2599pCRIqsPrJ-3" value="cars = loadFromFile(&quot;data.txt&quot;)" style="rounded=0;whiteSpace=wrap;html=1;" vertex="1" parent="1">
          <mxGeometry x="305" y="100" width="150" height="40" as="geometry" />
        </mxCell>
        <mxCell id="LzfFRMy2599pCRIqsPrJ-39" style="edgeStyle=orthogonalEdgeStyle;rounded=0;orthogonalLoop=1;jettySize=auto;html=1;exitX=0.5;exitY=1;exitDx=0;exitDy=0;entryX=0.5;entryY=0;entryDx=0;entryDy=0;" edge="1" parent="1" source="LzfFRMy2599pCRIqsPrJ-4" target="LzfFRMy2599pCRIqsPrJ-12">
          <mxGeometry relative="1" as="geometry" />
        </mxCell>
        <mxCell id="LzfFRMy2599pCRIqsPrJ-4" value="true" style="shape=loopLimit;whiteSpace=wrap;html=1;" vertex="1" parent="1">
          <mxGeometry x="295" y="160" width="170" height="40" as="geometry" />
        </mxCell>
        <mxCell id="LzfFRMy2599pCRIqsPrJ-8" style="edgeStyle=orthogonalEdgeStyle;rounded=0;orthogonalLoop=1;jettySize=auto;html=1;exitX=0.5;exitY=1;exitDx=0;exitDy=0;entryX=0.5;entryY=0;entryDx=0;entryDy=0;" edge="1" parent="1" source="LzfFRMy2599pCRIqsPrJ-5" target="LzfFRMy2599pCRIqsPrJ-7">
          <mxGeometry relative="1" as="geometry" />
        </mxCell>
        <mxCell id="LzfFRMy2599pCRIqsPrJ-5" value="" style="shape=loopLimit;whiteSpace=wrap;html=1;flipV=1;" vertex="1" parent="1">
          <mxGeometry x="295" y="840" width="170" height="40" as="geometry" />
        </mxCell>
        <mxCell id="LzfFRMy2599pCRIqsPrJ-9" style="edgeStyle=orthogonalEdgeStyle;rounded=0;orthogonalLoop=1;jettySize=auto;html=1;exitX=0.5;exitY=1;exitDx=0;exitDy=0;entryX=0.5;entryY=0;entryDx=0;entryDy=0;" edge="1" parent="1" source="LzfFRMy2599pCRIqsPrJ-7" target="LzfFRMy2599pCRIqsPrJ-2">
          <mxGeometry relative="1" as="geometry" />
        </mxCell>
        <mxCell id="LzfFRMy2599pCRIqsPrJ-7" value="saveToFile(&quot;data.txt&quot;)" style="shape=process;whiteSpace=wrap;html=1;backgroundOutline=1;" vertex="1" parent="1">
          <mxGeometry x="300" y="900" width="160" height="40" as="geometry" />
        </mxCell>
        <mxCell id="LzfFRMy2599pCRIqsPrJ-15" style="edgeStyle=orthogonalEdgeStyle;rounded=0;orthogonalLoop=1;jettySize=auto;html=1;exitX=0.5;exitY=1;exitDx=0;exitDy=0;entryX=0.5;entryY=0;entryDx=0;entryDy=0;" edge="1" parent="1" source="LzfFRMy2599pCRIqsPrJ-12" target="LzfFRMy2599pCRIqsPrJ-13">
          <mxGeometry relative="1" as="geometry" />
        </mxCell>
        <mxCell id="LzfFRMy2599pCRIqsPrJ-12" value="ch" style="shape=parallelogram;perimeter=parallelogramPerimeter;whiteSpace=wrap;html=1;fixedSize=1;" vertex="1" parent="1">
          <mxGeometry x="330" y="220" width="100" height="40" as="geometry" />
        </mxCell>
        <mxCell id="LzfFRMy2599pCRIqsPrJ-17" style="edgeStyle=orthogonalEdgeStyle;rounded=0;orthogonalLoop=1;jettySize=auto;html=1;exitX=0.5;exitY=1;exitDx=0;exitDy=0;entryX=0.5;entryY=0;entryDx=0;entryDy=0;" edge="1" parent="1" source="LzfFRMy2599pCRIqsPrJ-13" target="LzfFRMy2599pCRIqsPrJ-16">
          <mxGeometry relative="1" as="geometry" />
        </mxCell>
        <mxCell id="LzfFRMy2599pCRIqsPrJ-40" style="edgeStyle=orthogonalEdgeStyle;rounded=0;orthogonalLoop=1;jettySize=auto;html=1;exitX=1;exitY=0.5;exitDx=0;exitDy=0;" edge="1" parent="1" source="LzfFRMy2599pCRIqsPrJ-13">
          <mxGeometry relative="1" as="geometry">
            <mxPoint x="380" y="890" as="targetPoint" />
            <Array as="points">
              <mxPoint x="710" y="310" />
              <mxPoint x="710" y="890" />
              <mxPoint x="380" y="890" />
            </Array>
          </mxGeometry>
        </mxCell>
        <mxCell id="LzfFRMy2599pCRIqsPrJ-13" value="ch == 0" style="rhombus;whiteSpace=wrap;html=1;" vertex="1" parent="1">
          <mxGeometry x="340" y="280" width="80" height="60" as="geometry" />
        </mxCell>
        <mxCell id="LzfFRMy2599pCRIqsPrJ-38" style="edgeStyle=orthogonalEdgeStyle;rounded=0;orthogonalLoop=1;jettySize=auto;html=1;exitX=0.5;exitY=1;exitDx=0;exitDy=0;entryX=0.5;entryY=0;entryDx=0;entryDy=0;" edge="1" parent="1" source="LzfFRMy2599pCRIqsPrJ-16" target="LzfFRMy2599pCRIqsPrJ-18">
          <mxGeometry relative="1" as="geometry" />
        </mxCell>
        <mxCell id="LzfFRMy2599pCRIqsPrJ-16" value="ch" style="rounded=0;whiteSpace=wrap;html=1;" vertex="1" parent="1">
          <mxGeometry x="330" y="360" width="100" height="40" as="geometry" />
        </mxCell>
        <mxCell id="LzfFRMy2599pCRIqsPrJ-23" style="edgeStyle=orthogonalEdgeStyle;rounded=0;orthogonalLoop=1;jettySize=auto;html=1;exitX=0.5;exitY=1;exitDx=0;exitDy=0;entryX=0.5;entryY=0;entryDx=0;entryDy=0;" edge="1" parent="1" source="LzfFRMy2599pCRIqsPrJ-18" target="LzfFRMy2599pCRIqsPrJ-19">
          <mxGeometry relative="1" as="geometry" />
        </mxCell>
        <mxCell id="LzfFRMy2599pCRIqsPrJ-37" style="edgeStyle=orthogonalEdgeStyle;rounded=0;orthogonalLoop=1;jettySize=auto;html=1;exitX=1;exitY=0.5;exitDx=0;exitDy=0;entryX=0;entryY=0.5;entryDx=0;entryDy=0;" edge="1" parent="1" source="LzfFRMy2599pCRIqsPrJ-18" target="LzfFRMy2599pCRIqsPrJ-27">
          <mxGeometry relative="1" as="geometry" />
        </mxCell>
        <mxCell id="LzfFRMy2599pCRIqsPrJ-18" value="1" style="rhombus;whiteSpace=wrap;html=1;" vertex="1" parent="1">
          <mxGeometry x="335" y="420" width="90" height="60" as="geometry" />
        </mxCell>
        <mxCell id="LzfFRMy2599pCRIqsPrJ-24" style="edgeStyle=orthogonalEdgeStyle;rounded=0;orthogonalLoop=1;jettySize=auto;html=1;exitX=0.5;exitY=1;exitDx=0;exitDy=0;entryX=0.5;entryY=0;entryDx=0;entryDy=0;" edge="1" parent="1" source="LzfFRMy2599pCRIqsPrJ-19" target="LzfFRMy2599pCRIqsPrJ-20">
          <mxGeometry relative="1" as="geometry" />
        </mxCell>
        <mxCell id="LzfFRMy2599pCRIqsPrJ-36" style="edgeStyle=orthogonalEdgeStyle;rounded=0;orthogonalLoop=1;jettySize=auto;html=1;exitX=1;exitY=0.5;exitDx=0;exitDy=0;entryX=0;entryY=0.5;entryDx=0;entryDy=0;" edge="1" parent="1" source="LzfFRMy2599pCRIqsPrJ-19" target="LzfFRMy2599pCRIqsPrJ-28">
          <mxGeometry relative="1" as="geometry" />
        </mxCell>
        <mxCell id="LzfFRMy2599pCRIqsPrJ-19" value="2" style="rhombus;whiteSpace=wrap;html=1;" vertex="1" parent="1">
          <mxGeometry x="335" y="500" width="90" height="60" as="geometry" />
        </mxCell>
        <mxCell id="LzfFRMy2599pCRIqsPrJ-25" style="edgeStyle=orthogonalEdgeStyle;rounded=0;orthogonalLoop=1;jettySize=auto;html=1;exitX=0.5;exitY=1;exitDx=0;exitDy=0;entryX=0.5;entryY=0;entryDx=0;entryDy=0;" edge="1" parent="1" source="LzfFRMy2599pCRIqsPrJ-20" target="LzfFRMy2599pCRIqsPrJ-21">
          <mxGeometry relative="1" as="geometry" />
        </mxCell>
        <mxCell id="LzfFRMy2599pCRIqsPrJ-35" style="edgeStyle=orthogonalEdgeStyle;rounded=0;orthogonalLoop=1;jettySize=auto;html=1;exitX=1;exitY=0.5;exitDx=0;exitDy=0;entryX=0;entryY=0.5;entryDx=0;entryDy=0;" edge="1" parent="1" source="LzfFRMy2599pCRIqsPrJ-20" target="LzfFRMy2599pCRIqsPrJ-29">
          <mxGeometry relative="1" as="geometry" />
        </mxCell>
        <mxCell id="LzfFRMy2599pCRIqsPrJ-20" value="3" style="rhombus;whiteSpace=wrap;html=1;" vertex="1" parent="1">
          <mxGeometry x="335" y="580" width="90" height="60" as="geometry" />
        </mxCell>
        <mxCell id="LzfFRMy2599pCRIqsPrJ-26" style="edgeStyle=orthogonalEdgeStyle;rounded=0;orthogonalLoop=1;jettySize=auto;html=1;exitX=0.5;exitY=1;exitDx=0;exitDy=0;entryX=0.5;entryY=0;entryDx=0;entryDy=0;" edge="1" parent="1" source="LzfFRMy2599pCRIqsPrJ-21" target="LzfFRMy2599pCRIqsPrJ-22">
          <mxGeometry relative="1" as="geometry" />
        </mxCell>
        <mxCell id="LzfFRMy2599pCRIqsPrJ-34" style="edgeStyle=orthogonalEdgeStyle;rounded=0;orthogonalLoop=1;jettySize=auto;html=1;exitX=1;exitY=0.5;exitDx=0;exitDy=0;entryX=0;entryY=0.5;entryDx=0;entryDy=0;" edge="1" parent="1" source="LzfFRMy2599pCRIqsPrJ-21" target="LzfFRMy2599pCRIqsPrJ-30">
          <mxGeometry relative="1" as="geometry" />
        </mxCell>
        <mxCell id="LzfFRMy2599pCRIqsPrJ-21" value="4" style="rhombus;whiteSpace=wrap;html=1;" vertex="1" parent="1">
          <mxGeometry x="335" y="655" width="90" height="60" as="geometry" />
        </mxCell>
        <mxCell id="LzfFRMy2599pCRIqsPrJ-33" style="edgeStyle=orthogonalEdgeStyle;rounded=0;orthogonalLoop=1;jettySize=auto;html=1;exitX=1;exitY=0.5;exitDx=0;exitDy=0;entryX=0;entryY=0.5;entryDx=0;entryDy=0;" edge="1" parent="1" source="LzfFRMy2599pCRIqsPrJ-22" target="LzfFRMy2599pCRIqsPrJ-32">
          <mxGeometry relative="1" as="geometry" />
        </mxCell>
        <mxCell id="LzfFRMy2599pCRIqsPrJ-46" style="edgeStyle=orthogonalEdgeStyle;rounded=0;orthogonalLoop=1;jettySize=auto;html=1;exitX=0.5;exitY=1;exitDx=0;exitDy=0;" edge="1" parent="1" source="LzfFRMy2599pCRIqsPrJ-22">
          <mxGeometry relative="1" as="geometry">
            <mxPoint x="380" y="840" as="targetPoint" />
          </mxGeometry>
        </mxCell>
        <mxCell id="LzfFRMy2599pCRIqsPrJ-22" value="5" style="rhombus;whiteSpace=wrap;html=1;" vertex="1" parent="1">
          <mxGeometry x="335" y="730" width="90" height="60" as="geometry" />
        </mxCell>
        <mxCell id="LzfFRMy2599pCRIqsPrJ-41" style="edgeStyle=orthogonalEdgeStyle;rounded=0;orthogonalLoop=1;jettySize=auto;html=1;exitX=1;exitY=0.5;exitDx=0;exitDy=0;" edge="1" parent="1" source="LzfFRMy2599pCRIqsPrJ-27">
          <mxGeometry relative="1" as="geometry">
            <mxPoint x="380" y="820" as="targetPoint" />
            <Array as="points">
              <mxPoint x="670" y="450" />
              <mxPoint x="670" y="820" />
            </Array>
          </mxGeometry>
        </mxCell>
        <mxCell id="LzfFRMy2599pCRIqsPrJ-27" value="carsToConsole()" style="shape=process;whiteSpace=wrap;html=1;backgroundOutline=1;" vertex="1" parent="1">
          <mxGeometry x="450" y="430" width="160" height="40" as="geometry" />
        </mxCell>
        <mxCell id="LzfFRMy2599pCRIqsPrJ-42" style="edgeStyle=orthogonalEdgeStyle;rounded=0;orthogonalLoop=1;jettySize=auto;html=1;exitX=1;exitY=0.5;exitDx=0;exitDy=0;" edge="1" parent="1" source="LzfFRMy2599pCRIqsPrJ-28">
          <mxGeometry relative="1" as="geometry">
            <mxPoint x="670" y="530" as="targetPoint" />
          </mxGeometry>
        </mxCell>
        <mxCell id="LzfFRMy2599pCRIqsPrJ-28" value="changeCars()" style="shape=process;whiteSpace=wrap;html=1;backgroundOutline=1;" vertex="1" parent="1">
          <mxGeometry x="450" y="510" width="160" height="40" as="geometry" />
        </mxCell>
        <mxCell id="LzfFRMy2599pCRIqsPrJ-43" style="edgeStyle=orthogonalEdgeStyle;rounded=0;orthogonalLoop=1;jettySize=auto;html=1;exitX=1;exitY=0.5;exitDx=0;exitDy=0;" edge="1" parent="1" source="LzfFRMy2599pCRIqsPrJ-29">
          <mxGeometry relative="1" as="geometry">
            <mxPoint x="670" y="610" as="targetPoint" />
          </mxGeometry>
        </mxCell>
        <mxCell id="LzfFRMy2599pCRIqsPrJ-29" value="testDriveAdder()" style="shape=process;whiteSpace=wrap;html=1;backgroundOutline=1;" vertex="1" parent="1">
          <mxGeometry x="450" y="590" width="160" height="40" as="geometry" />
        </mxCell>
        <mxCell id="LzfFRMy2599pCRIqsPrJ-44" style="edgeStyle=orthogonalEdgeStyle;rounded=0;orthogonalLoop=1;jettySize=auto;html=1;exitX=1;exitY=0.5;exitDx=0;exitDy=0;" edge="1" parent="1" source="LzfFRMy2599pCRIqsPrJ-30">
          <mxGeometry relative="1" as="geometry">
            <mxPoint x="670" y="685" as="targetPoint" />
          </mxGeometry>
        </mxCell>
        <mxCell id="LzfFRMy2599pCRIqsPrJ-30" value="requestCars()" style="shape=process;whiteSpace=wrap;html=1;backgroundOutline=1;" vertex="1" parent="1">
          <mxGeometry x="450" y="665" width="160" height="40" as="geometry" />
        </mxCell>
        <mxCell id="LzfFRMy2599pCRIqsPrJ-45" style="edgeStyle=orthogonalEdgeStyle;rounded=0;orthogonalLoop=1;jettySize=auto;html=1;exitX=1;exitY=0.5;exitDx=0;exitDy=0;" edge="1" parent="1" source="LzfFRMy2599pCRIqsPrJ-32">
          <mxGeometry relative="1" as="geometry">
            <mxPoint x="670" y="760" as="targetPoint" />
          </mxGeometry>
        </mxCell>
        <mxCell id="LzfFRMy2599pCRIqsPrJ-32" value="cars.removeAt(getRightId())" style="rounded=0;whiteSpace=wrap;html=1;" vertex="1" parent="1">
          <mxGeometry x="450" y="740" width="160" height="40" as="geometry" />
        </mxCell>
      </root>
    </mxGraphModel>
  </diagram>
</mxfile>
